# xmcd
#
# Track frame offsets:
#	150
#	14604
#	35615
#	54079
#	73015
#	88217
#	104072
#	121329
#	139000
#	155893
#	175893
#	195225
#	210788
#	227052
#	247920
#	265491
#	283881
#	300897
#
# Disc length: 4183 seconds
#
# Revision: 1
# Processed by: cddbd v1.5.2PL0 Copyright (c) Steve Scherf et al.
# Submitted via: EasyCDDAExtractor 7.1.0.1
#
DISCID=fb105512
DTITLE=Norberto al K la - precisamente ahora (bonus track)
DYEAR=2006
DGENRE=Country
TTITLE0=ojala que no puedas
TTITLE1=angel
TTITLE2=eclipse total del amor
TTITLE3=quien eres tu
TTITLE4=herculito
TTITLE5=yo por tu amor
TTITLE6=mi niña bonita
TTITLE7=la querida
TTITLE8=que no me pierda
TTITLE9=preciosa mia
TTITLE10=no me conoces
TTITLE11=una nueva noche fria
TTITLE12=luna de miel
TTITLE13=ni fu ni fa
TTITLE14=no te puedo perdonar
TTITLE15=si me dejas no vale
TTITLE16=el baile piri pipa
TTITLE17=el retrato de mama
EXTD=
EXTT0=
EXTT1=
EXTT2=
EXTT3=
EXTT4=
EXTT5=
EXTT6=
EXTT7=
EXTT8=
EXTT9=
EXTT10=
EXTT11=
EXTT12=
EXTT13=
EXTT14=
EXTT15=
EXTT16=
EXTT17=
PLAYORDER=
